<?xml version="1.0" standalone="no"?>
<!DOCTYPE svg PUBLIC "-//W3C//DTD SVG 20010904//EN"
 "http://www.w3.org/TR/2001/REC-SVG-20010904/DTD/svg10.dtd">
<svg version="1.0" xmlns="http://www.w3.org/2000/svg"
 width="1785.000000pt" height="3297.000000pt" viewBox="0 0 1785.000000 3297.000000"
 preserveAspectRatio="xMidYMid meet">

<g transform="translate(0.000000,3297.000000) scale(0.100000,-0.100000)"
fill="#ffffff" stroke="none">
<path d="M8620 31385 l0 -1445 253 2 252 3 0 1440 0 1440 -252 3 -253 2 0
-1445z"/>
<path d="M5703 31977 c-117 -67 -213 -126 -213 -131 0 -15 1424 -2478 1435
-2482 12 -5 435 236 435 247 0 12 -1429 2484 -1437 2486 -5 1 -103 -53 -220
-120z"/>
<path d="M11096 30854 c-395 -685 -717 -1247 -715 -1248 15 -13 428 -246 435
-246 10 1 1439 2473 1436 2486 -2 8 -421 254 -432 254 -3 0 -328 -561 -724
-1246z"/>
<path d="M3385 29659 c-69 -121 -125 -222 -123 -224 13 -12 2474 -1428 2484
-1429 10 -1 250 396 257 426 1 4 -554 328 -1233 720 -679 393 -1240 717 -1246
721 -7 4 -58 -73 -139 -214z"/>
<path d="M13004 29171 c-671 -388 -1231 -713 -1244 -722 l-23 -15 124 -217
c68 -119 127 -217 130 -217 11 0 2484 1430 2487 1438 2 8 -232 421 -246 433
-4 3 -556 -312 -1228 -700z"/>
<path d="M8698 29012 c-264 -287 -362 -403 -538 -637 -604 -804 -1014 -1658
-1164 -2425 -52 -267 -61 -366 -61 -675 0 -302 6 -369 50 -590 59 -294 119
-452 345 -915 437 -895 766 -1713 991 -2464 82 -274 110 -388 190 -780 38
-187 71 -342 74 -344 2 -2 21 9 42 25 556 435 669 532 889 755 761 773 1242
1644 1387 2513 83 493 53 1024 -84 1487 -183 619 -506 1502 -809 2208 -195
454 -480 1049 -671 1397 -98 181 -401 693 -409 692 -3 0 -107 -112 -232 -247z
m267 -643 c467 -859 957 -2018 1323 -3129 194 -588 234 -791 235 -1190 0 -523
-112 -973 -374 -1500 -229 -458 -522 -867 -904 -1259 -146 -150 -375 -364
-382 -357 -2 2 -24 82 -49 177 -212 819 -597 1806 -1133 2905 -207 426 -267
604 -312 934 -20 141 -17 523 5 685 93 687 380 1383 881 2140 203 307 587 797
607 777 5 -5 51 -87 103 -183z"/>
<path d="M2540 26490 l0 -260 1438 2 1437 3 0 255 0 255 -1437 3 -1438 2 0
-260z"/>
<path d="M12325 26737 c-3 -7 -4 -123 -3 -257 l3 -245 1440 0 1440 0 0 255 0
255 -1438 3 c-1156 2 -1439 0 -1442 -11z"/>
<path d="M120 16565 l0 -7795 1170 0 1170 0 0 -107 0 -108 -1138 -319 c-625
-176 -1139 -321 -1141 -323 -2 -1 132 -549 299 -1217 258 -1035 304 -1213 318
-1210 10 2 523 115 1142 249 619 135 1132 248 1142 251 12 4 34 -30 99 -153
209 -400 425 -731 695 -1070 63 -78 114 -144 114 -147 0 -3 -315 -434 -699
-958 -385 -523 -698 -955 -696 -959 3 -4 116 -94 252 -200 137 -106 575 -449
975 -761 400 -312 732 -568 737 -568 5 0 348 407 761 905 413 498 755 905 760
905 4 0 72 -29 149 -65 393 -181 882 -347 1265 -431 70 -16 130 -33 131 -39 2
-5 17 -530 35 -1165 17 -635 34 -1165 36 -1177 l4 -23 1249 0 1249 0 6 113 c6
104 66 2149 66 2227 l0 35 108 23 c399 86 919 263 1316 449 80 38 123 53 132
47 7 -5 349 -414 760 -909 410 -495 747 -901 748 -902 1 -1 446 345 989 769
l988 770 -24 32 c-13 17 -307 416 -652 886 -346 470 -652 887 -681 925 l-52
71 70 84 c274 333 540 738 731 1110 50 96 91 176 92 177 0 1 523 -112 1160
-251 638 -140 1161 -253 1161 -252 9 9 601 2423 596 2427 -4 4 -517 150 -1139
325 l-1133 319 0 107 0 108 1170 0 1170 0 0 7795 0 7795 -2958 0 -2958 0 -48
-237 c-144 -715 -325 -1255 -607 -1813 -512 -1016 -1299 -1846 -2289 -2415
-232 -133 -694 -354 -837 -399 -20 -6 -21 -2 -27 126 -82 1549 -673 3244
-1604 4603 l-89 130 -3121 3 -3122 2 0 -7795z m6128 7203 c674 -1065 1147
-2318 1316 -3488 54 -377 76 -682 76 -1082 0 -167 4 -278 9 -278 23 0 328 92
446 135 1290 466 2389 1325 3130 2445 453 685 779 1478 970 2363 l16 77 2575
0 2574 0 0 -3211 0 -3211 -67 6 c-423 42 -919 191 -1807 540 -594 234 -1011
329 -1497 343 -288 8 -492 -11 -777 -73 -270 -58 -475 -126 -867 -289 -558
-232 -943 -369 -1247 -444 -217 -54 -318 -71 -469 -78 -399 -19 -963 131
-1941 516 -524 206 -817 288 -1238 348 -196 27 -655 25 -850 -5 -336 -52 -669
-149 -1040 -304 -1100 -459 -1604 -595 -2035 -549 -390 42 -903 196 -1710 513
-505 199 -828 289 -1227 343 l-48 6 0 2775 0 2774 2799 0 2800 0 109 -172z
m1172 -5947 c353 -52 583 -118 1052 -302 863 -338 1405 -499 1853 -549 133
-15 378 -12 511 5 409 54 921 217 1698 539 451 188 628 244 931 297 519 90
1086 13 1717 -232 779 -303 1142 -426 1536 -523 178 -44 406 -83 540 -92 l102
-7 0 -417 0 -417 -52 4 c-378 29 -909 184 -1741 509 -445 174 -633 234 -917
294 -586 125 -1107 109 -1669 -50 -191 -54 -345 -110 -651 -238 -680 -283
-1150 -439 -1505 -498 -123 -21 -374 -23 -500 -5 -410 60 -873 203 -1705 529
-301 118 -455 169 -685 227 -323 82 -588 116 -905 116 -496 1 -912 -97 -1548
-362 -685 -286 -1139 -437 -1500 -500 -474 -83 -1013 43 -2232 521 -276 109
-473 174 -671 224 -153 38 -373 80 -476 92 l-63 7 0 413 c0 394 1 414 18 414
37 0 251 -42 387 -76 173 -44 382 -113 585 -194 866 -347 1483 -531 1938 -581
157 -16 452 -7 607 20 396 70 872 227 1600 528 165 69 351 142 412 163 222 77
514 140 737 160 141 13 443 3 596 -19z m-129 -1381 c356 -36 666 -117 1114
-292 889 -347 1381 -498 1830 -564 170 -25 488 -25 650 0 420 65 927 232 1745
573 705 295 1217 359 1855 232 272 -54 463 -113 845 -264 723 -285 1274 -459
1665 -524 110 -18 300 -41 346 -41 18 0 19 -14 19 -416 l0 -417 -83 6 c-367
29 -945 202 -1783 535 -810 322 -1455 415 -2109 306 -320 -54 -597 -139 -995
-304 -677 -282 -1100 -428 -1450 -501 -191 -40 -442 -50 -625 -25 -383 53
-868 203 -1645 508 -674 265 -1103 361 -1625 362 -516 1 -920 -93 -1575 -367
-706 -294 -1194 -453 -1538 -502 -455 -65 -1005 66 -2122 505 -341 134 -502
188 -728 245 -148 38 -409 88 -507 97 l-30 3 -3 418 -2 417 22 -5 c13 -2 66
-12 118 -20 253 -42 504 -118 898 -271 1125 -439 1708 -590 2197 -571 461 19
1003 181 1995 597 384 161 690 246 1006 279 116 12 397 13 515 1z m24 -1401
c217 -21 503 -83 745 -161 69 -22 250 -89 402 -149 924 -362 1472 -520 1943
-559 487 -41 1063 108 2126 550 329 137 498 197 689 245 622 158 1235 103
1952 -176 656 -254 974 -367 1308 -464 290 -84 562 -138 747 -151 48 -3 98 -7
111 -10 l22 -4 0 -2480 0 -2480 -1176 -2 -1176 -3 3 -120 c6 -189 0 -576 -10
-708 -6 -67 -9 -122 -8 -123 1 -2 499 -142 1106 -313 608 -171 1106 -313 1108
-315 4 -3 -394 -1612 -401 -1625 -3 -4 -506 102 -1118 236 -612 134 -1119 242
-1126 241 -7 -2 -50 -84 -96 -183 -256 -562 -608 -1095 -1028 -1557 l-79 -86
680 -926 c375 -509 681 -929 681 -933 -1 -10 -1306 -1028 -1319 -1028 -5 0
-334 392 -731 870 -397 479 -727 876 -734 882 -9 10 -41 -3 -151 -62 -515
-275 -1161 -500 -1720 -599 -82 -15 -162 -29 -176 -32 l-27 -5 -6 -142 c-4
-78 -18 -529 -31 -1002 -13 -473 -27 -929 -31 -1012 l-6 -153 -838 0 -838 0
-6 72 c-4 56 -67 2171 -66 2225 0 7 -17 15 -37 18 -667 110 -1243 299 -1830
600 l-203 104 -732 -884 c-403 -486 -738 -882 -744 -880 -6 2 -281 214 -610
471 -329 257 -625 488 -657 512 -38 30 -54 49 -48 56 5 6 313 425 685 930
l675 920 -57 61 c-413 441 -808 1038 -1063 1608 -37 83 -72 153 -78 155 -8 3
-968 -205 -2212 -477 l-35 -8 -204 814 c-111 447 -201 816 -198 819 3 3 502
145 1109 315 607 171 1105 312 1106 312 1 1 -3 52 -9 112 -6 61 -11 275 -12
478 l0 367 -1173 0 -1173 0 0 2915 c0 1798 4 2915 9 2915 5 0 72 -11 148 -25
270 -50 529 -127 846 -254 617 -247 1193 -437 1557 -515 345 -74 650 -90 928
-47 389 59 915 229 1632 529 424 176 579 228 850 282 283 56 510 67 805 39z"/>
<path d="M4124 22936 c-159 -30 -263 -82 -360 -180 -107 -108 -146 -205 -145
-366 0 -149 42 -256 139 -362 95 -102 170 -134 531 -223 211 -52 240 -62 294
-99 35 -24 68 -56 79 -76 36 -70 15 -194 -45 -258 -92 -99 -361 -123 -532 -47
-99 43 -189 149 -230 268 -10 31 -24 57 -30 57 -19 1 -300 -63 -308 -70 -12
-10 48 -165 93 -242 107 -180 260 -294 465 -350 120 -32 376 -32 494 0 157 43
276 118 357 225 57 76 66 95 93 182 27 88 30 243 5 325 -52 175 -181 301 -381
369 -34 11 -158 43 -275 71 -238 56 -254 61 -320 102 -133 83 -109 257 46 333
112 55 249 54 371 -3 111 -52 161 -114 197 -243 l13 -46 158 47 c86 26 160 50
164 53 3 4 -6 40 -22 79 -70 183 -185 319 -328 387 -45 21 -111 46 -147 55
-90 23 -287 29 -376 12z"/>
<path d="M1720 21955 l0 -955 155 0 155 0 0 681 c0 374 3 678 8 675 4 -2 187
-308 407 -680 l400 -675 163 -1 162 0 0 955 0 955 -155 0 -155 0 -2 -631 -3
-632 -375 632 -374 631 -193 0 -193 0 0 -955z"/>
<path d="M13110 22750 l0 -160 255 0 255 0 0 -795 0 -795 175 0 175 0 0 795 0
795 260 0 260 0 0 160 0 160 -690 0 -690 0 0 -160z"/>
<path d="M14822 22193 l3 -718 28 -88 c36 -117 69 -179 125 -240 64 -68 119
-104 212 -137 152 -56 372 -64 530 -20 230 65 371 209 432 443 21 80 22 103
25 780 l4 697 -160 0 -160 0 -3 -692 c-3 -640 -5 -697 -21 -740 -26 -66 -86
-131 -149 -159 -47 -21 -68 -24 -179 -24 -124 0 -127 0 -195 35 -86 44 -119
92 -134 195 -5 41 -10 342 -10 728 l0 657 -175 0 -176 0 3 -717z"/>
<path d="M8670 13353 c-1304 -91 -2463 -694 -3275 -1706 -539 -671 -863 -1454
-972 -2347 -25 -207 -25 -773 0 -980 26 -210 62 -413 107 -595 500 -2030 2328
-3465 4414 -3465 1217 0 2360 474 3221 1335 742 742 1192 1685 1312 2747 24
214 24 722 0 936 -64 564 -213 1073 -458 1562 -548 1095 -1506 1920 -2669
2298 -350 114 -696 182 -1079 212 -122 9 -488 11 -601 3z m525 -423 c570 -36
1102 -178 1598 -427 167 -83 254 -134 442 -259 621 -411 1115 -980 1441 -1659
533 -1111 534 -2432 3 -3545 -133 -278 -320 -576 -515 -820 -140 -174 -452
-487 -624 -624 -892 -711 -1989 -1021 -3120 -880 -751 93 -1483 409 -2090 902
-150 122 -478 454 -604 612 -408 511 -695 1126 -821 1755 -134 667 -107 1335
80 1980 150 517 421 1032 773 1465 118 145 452 476 597 591 751 597 1606 902
2565 917 63 1 187 -3 275 -8z"/>
<path d="M6223 10889 c-153 -12 -293 -63 -374 -136 -140 -126 -180 -316 -111
-520 40 -118 65 -166 151 -294 91 -136 199 -265 355 -421 207 -209 357 -339
786 -680 l35 -28 -35 -27 c-423 -338 -566 -461 -774 -669 -167 -167 -274 -294
-367 -433 -86 -128 -111 -176 -151 -294 -55 -163 -40 -322 41 -440 226 -328
867 -291 1916 111 299 114 781 332 1096 494 l156 80 199 -100 c1103 -555 2029
-849 2528 -802 317 30 498 182 514 433 23 367 -405 904 -1233 1546 -66 51
-120 97 -120 101 0 4 66 58 146 121 355 276 714 611 889 829 229 287 330 508
318 699 -15 226 -159 367 -433 422 -93 18 -320 14 -480 -10 -516 -77 -1244
-343 -2088 -764 l-238 -118 -282 139 c-1086 538 -1936 802 -2444 761z m317
-495 c297 -44 774 -196 1260 -404 239 -102 620 -280 620 -289 0 -3 -42 -30
-92 -60 -176 -103 -404 -245 -621 -387 l-218 -144 -147 112 c-554 419 -1003
859 -1114 1093 -34 72 -35 83 -5 90 72 15 151 13 317 -11z m5143 10 c23 -7 22
-17 -13 -88 -94 -191 -387 -503 -779 -828 -183 -152 -469 -371 -485 -371 -6 0
-86 49 -176 110 -182 121 -476 306 -642 403 -60 35 -108 66 -108 70 0 9 272
139 495 238 758 334 1476 530 1708 466z m-2503 -1107 c225 -129 468 -276 649
-394 l143 -94 -148 -96 c-182 -118 -541 -334 -733 -441 l-142 -80 -112 63
c-315 176 -906 538 -907 555 0 13 480 310 790 488 224 129 225 129 255 114 17
-8 109 -60 205 -115z m-987 -1237 c125 -74 227 -138 227 -141 0 -3 -64 -37
-142 -74 -812 -388 -1557 -634 -1933 -638 -104 -1 -145 6 -145 26 0 30 64 141
133 234 184 244 564 594 1009 931 l147 112 239 -158 c132 -86 341 -218 465
-292z m2389 318 c482 -366 864 -729 1033 -983 55 -83 92 -161 81 -172 -15 -15
-129 -21 -225 -12 -405 38 -1112 280 -1832 626 -87 42 -159 79 -159 82 0 3 48
35 108 70 203 121 470 290 643 405 95 63 177 112 183 109 6 -4 82 -60 168
-125z"/>
</g>
</svg>
